<?xml version="1.0" encoding="iso-8859-1"?>
<!-- Generator: Adobe Illustrator 19.0.0, SVG Export Plug-In . SVG Version: 6.00 Build 0)  -->
<svg version="1.1" id="Layer_1" xmlns="http://www.w3.org/2000/svg" xmlns:xlink="http://www.w3.org/1999/xlink" x="0px" y="0px"
	 viewBox="0 0 512.011 512.011" style="enable-background:new 0 0 512.011 512.011;" xml:space="preserve">
<g>
	<g>
		<g>
			<path d="M509.931,488.341c0.202-0.425,0.396-0.854,0.57-1.294c0.093-0.234,0.174-0.469,0.258-0.705
				c0.148-0.417,0.289-0.836,0.412-1.264c0.076-0.265,0.14-0.531,0.205-0.798c0.099-0.405,0.193-0.81,0.268-1.224
				c0.054-0.295,0.094-0.59,0.135-0.885c0.055-0.394,0.107-0.788,0.141-1.189c0.025-0.308,0.035-0.616,0.047-0.924
				c0.011-0.287,0.043-0.568,0.043-0.857v-256c0-2.071-0.308-4.107-0.885-6.054c-0.002-0.007-0.004-0.014-0.006-0.021
				c-0.194-0.652-0.418-1.293-0.672-1.922c-0.006-0.016-0.013-0.032-0.02-0.048c-0.259-0.635-0.547-1.258-0.866-1.866
				c-0.001-0.001-0.001-0.002-0.002-0.003c-1.146-2.184-2.669-4.177-4.534-5.872L314.222,33.974
				c-33.011-30.01-83.432-30.01-116.444,0.001L6.994,207.415c-0.235,0.213-0.461,0.434-0.685,0.657
				c-0.019,0.018-0.039,0.034-0.058,0.052c-0.008,0.008-0.014,0.016-0.021,0.024c-0.466,0.468-0.904,0.957-1.322,1.462
				c-0.057,0.069-0.118,0.136-0.174,0.206c-0.367,0.455-0.709,0.927-1.035,1.408c-0.09,0.132-0.183,0.263-0.27,0.397
				c-0.282,0.436-0.543,0.885-0.792,1.34c-0.102,0.186-0.205,0.37-0.301,0.558c-0.219,0.43-0.419,0.868-0.608,1.311
				c-0.092,0.216-0.183,0.432-0.268,0.65c-0.17,0.438-0.325,0.882-0.466,1.331c-0.07,0.223-0.135,0.445-0.198,0.67
				c-0.128,0.459-0.242,0.922-0.339,1.39c-0.044,0.214-0.082,0.428-0.119,0.642c-0.085,0.483-0.159,0.969-0.21,1.458
				c-0.021,0.199-0.032,0.397-0.047,0.597c-0.032,0.416-0.052,0.834-0.06,1.253c-0.003,0.189-0.012,0.378-0.01,0.567V478.6
				c-0.002,0.065,0.001,0.13,0,0.195v0.405c0,0.095,0.013,0.188,0.014,0.283c0.007,0.584,0.033,1.167,0.088,1.751
				c0.014,0.148,0.035,0.293,0.052,0.44c0.063,0.548,0.143,1.094,0.25,1.638c0.034,0.174,0.075,0.345,0.113,0.518
				c0.111,0.502,0.236,1,0.385,1.497c0.06,0.199,0.127,0.394,0.193,0.591c0.151,0.456,0.313,0.909,0.497,1.358
				c0.09,0.219,0.189,0.433,0.286,0.649c0.187,0.416,0.38,0.83,0.596,1.238c0.118,0.222,0.246,0.437,0.372,0.655
				c0.162,0.281,0.304,0.569,0.48,0.846c0.073,0.115,0.159,0.217,0.235,0.331c0.113,0.17,0.236,0.332,0.354,0.499
				c0.299,0.425,0.603,0.844,0.928,1.24c0.05,0.061,0.105,0.118,0.156,0.179c2.216,2.646,4.968,4.65,8.003,5.934
				c0.082,0.035,0.168,0.061,0.25,0.095c0.55,0.224,1.105,0.434,1.67,0.611c0.153,0.048,0.312,0.083,0.467,0.127
				c0.514,0.149,1.029,0.289,1.552,0.399c0.16,0.034,0.324,0.054,0.486,0.084c0.538,0.1,1.078,0.189,1.623,0.248
				c0.139,0.015,0.281,0.02,0.421,0.032c0.579,0.051,1.158,0.084,1.74,0.088c0.041,0,0.081,0.006,0.123,0.006h469.333
				c0.04,0,0.078-0.006,0.118-0.006c0.567-0.004,1.131-0.037,1.694-0.086c0.163-0.014,0.328-0.02,0.489-0.037
				c0.49-0.054,0.975-0.135,1.46-0.223c0.222-0.04,0.447-0.069,0.667-0.115c0.412-0.088,0.816-0.203,1.222-0.314
				c0.271-0.074,0.546-0.137,0.812-0.222c0.376-0.119,0.742-0.266,1.11-0.406c0.274-0.104,0.554-0.196,0.822-0.311
				c0.404-0.173,0.795-0.375,1.189-0.573c0.214-0.108,0.435-0.203,0.644-0.318c0.446-0.244,0.877-0.517,1.306-0.794
				c0.143-0.092,0.293-0.173,0.433-0.269c0.428-0.29,0.838-0.609,1.247-0.932c0.132-0.104,0.271-0.199,0.4-0.306
				c0.349-0.29,0.68-0.606,1.013-0.921c0.178-0.168,0.363-0.327,0.535-0.501c0.253-0.257,0.49-0.533,0.731-0.805
				c0.237-0.265,0.477-0.525,0.7-0.801c0.171-0.212,0.328-0.438,0.492-0.658c0.272-0.364,0.541-0.731,0.789-1.112
				c0.037-0.057,0.08-0.107,0.116-0.164c0.087-0.137,0.154-0.28,0.238-0.419c0.255-0.419,0.501-0.843,0.727-1.281
				C509.738,488.757,509.833,488.549,509.931,488.341z M42.678,274.72l101.217,101.217L42.678,440.343V274.72z M204.01,388.258
				c31.714-20.193,72.272-20.193,103.98-0.003l109.4,69.612H94.615L204.01,388.258z M368.11,375.937l101.234-101.234v165.65
				L368.11,375.937z M226.479,65.545c16.738-15.216,42.306-15.216,59.043,0l174.25,158.391L331.235,352.473l-0.334-0.213
				c-45.684-29.087-104.112-29.087-149.801,0.003l-0.329,0.209l-128.53-128.53L226.479,65.545z"/>
			<path d="M176.918,216.96c8.331,8.331,21.839,8.331,30.17,0l27.582-27.582v97.83c0,11.782,9.551,21.333,21.333,21.333
				s21.333-9.551,21.333-21.333v-97.83l27.582,27.582c8.331,8.331,21.839,8.331,30.17,0c8.331-8.331,8.331-21.839,0-30.17l-64-64
				c-0.004-0.004-0.008-0.006-0.011-0.01c-0.494-0.493-1.012-0.96-1.552-1.403c-0.247-0.203-0.507-0.379-0.761-0.569
				c-0.303-0.227-0.6-0.462-0.915-0.673c-0.304-0.203-0.619-0.379-0.93-0.565c-0.286-0.171-0.565-0.35-0.86-0.508
				c-0.317-0.17-0.643-0.313-0.967-0.466c-0.308-0.145-0.61-0.299-0.925-0.43c-0.314-0.13-0.635-0.235-0.953-0.349
				c-0.338-0.122-0.672-0.251-1.018-0.356c-0.318-0.096-0.642-0.167-0.964-0.248c-0.353-0.089-0.701-0.188-1.061-0.259
				c-0.372-0.074-0.748-0.117-1.122-0.171c-0.314-0.045-0.622-0.105-0.941-0.136c-1.4-0.138-2.81-0.138-4.21,0
				c-0.318,0.031-0.627,0.091-0.941,0.136c-0.375,0.054-0.75,0.097-1.122,0.171c-0.359,0.071-0.708,0.17-1.061,0.259
				c-0.322,0.081-0.645,0.152-0.964,0.248c-0.346,0.105-0.68,0.234-1.018,0.356c-0.318,0.114-0.639,0.219-0.953,0.349
				c-0.315,0.131-0.618,0.284-0.925,0.43c-0.324,0.153-0.65,0.296-0.967,0.466c-0.294,0.158-0.574,0.337-0.86,0.508
				c-0.311,0.186-0.626,0.362-0.93,0.565c-0.315,0.211-0.612,0.446-0.915,0.673c-0.254,0.19-0.514,0.366-0.761,0.569
				c-0.54,0.443-1.059,0.91-1.552,1.403c-0.004,0.004-0.008,0.006-0.011,0.01l-64,64
				C168.587,195.122,168.587,208.629,176.918,216.96z"/>
		</g>
	</g>
</g>
<g>
</g>
<g>
</g>
<g>
</g>
<g>
</g>
<g>
</g>
<g>
</g>
<g>
</g>
<g>
</g>
<g>
</g>
<g>
</g>
<g>
</g>
<g>
</g>
<g>
</g>
<g>
</g>
<g>
</g>
</svg>
